<svg width="24" height="26" viewBox="0 0 24 26" fill="none" xmlns="http://www.w3.org/2000/svg">
<path d="M23.5172 6.53851L19.283 2.22885C18.99 1.93055 18.5147 1.93036 18.2213 2.22848C17.9287 2.52592 17.9281 3.00807 18.2202 3.30637L19.4578 4.56714V8.4446C19.4578 9.70786 20.4652 10.7319 21.6656 10.7319H22.4578V19.0377C22.4578 19.7987 21.9483 20.5063 21.2095 20.6283C20.2734 20.7817 19.4578 20.0479 19.4578 19.1187V16.8314C19.4578 14.7252 17.7797 13.0192 15.7078 13.0192H15V3.86999C15 2.19263 13.65 0.820251 12 0.820251H4.45781C2.80781 0.820251 1.45781 2.19263 1.45781 3.86999V23.6933H0.707813C0.295359 23.6933 0 24.0363 0 24.4557C0 24.8751 0.337547 25.2182 0.75 25.2182H15.75C16.1625 25.2182 16.5 24.8751 16.5 24.4557C16.5 24.0363 16.1203 23.6933 15.7078 23.6933H14.9578V14.5441H15.7078C16.9505 14.5441 17.9578 15.5681 17.9578 16.8314V18.9752C17.9578 20.4501 18.922 21.8148 20.3442 22.106C22.2656 22.4591 23.9578 21.0009 23.9578 19.1187V7.61545C23.9578 7.21041 23.7984 6.82442 23.5172 6.53851ZM13.4578 23.6933H2.95781V11.4943H13.4578V23.6933ZM13.4578 9.96947H2.95781V3.86999C2.95781 3.03036 3.63187 2.34512 4.45781 2.34512H11.9578C12.7838 2.34512 13.4578 3.03036 13.4578 3.86999V9.96947ZM22.4578 9.20703H21.7078C21.3 9.20703 20.9578 8.86394 20.9578 8.4446V6.09058L22.4578 7.61545V9.20703Z" fill="#004A34"/>
</svg>
