<svg width="23" height="25" viewBox="0 0 23 25" fill="none" xmlns="http://www.w3.org/2000/svg">
<path d="M11.4497 24.932C8.82234 24.932 7.88766 24.3921 7.88766 23.2193V21.3342C7.17656 21.0304 6.51188 20.6418 5.90203 20.171L4.29422 21.1136C4.07761 21.2424 3.82659 21.3048 3.57422 21.3048C1.85344 21.3048 0 16.8794 0 16.1298C0 15.6128 0.272156 15.1129 0.736406 14.8399L2.33812 13.9002C2.32875 13.5002 2.30391 13.1142 2.30391 12.6901C2.30391 12.266 2.32881 11.9215 2.38008 11.5241L0.777187 10.6268C0.313594 10.3552 0.0417187 9.85482 0.0417187 9.33541C0.0417187 8.73595 1.82203 4.15562 3.61359 4.15562C3.86752 4.15562 4.12078 4.21938 4.34109 4.35152L5.94188 5.29356C6.55125 4.82323 7.21688 4.43439 7.88719 4.13037V2.24525C7.88719 0.74063 9.60281 0.534058 11.4919 0.534058C13.3533 0.534058 15.0122 0.728621 15.0122 2.24525V4.13037C15.7233 4.43415 16.388 4.82275 16.9978 5.29356L18.6056 4.351C18.8222 4.22219 19.0735 4.15977 19.3261 4.15977C21.0356 4.15977 22.8998 8.56997 22.8998 9.33479C22.8998 9.85182 22.6277 10.3517 22.1634 10.6247L20.5617 11.5644C20.613 11.962 20.6379 12.3478 20.6379 12.7305C20.6379 13.1131 20.613 13.4991 20.5617 13.8965L22.1644 14.8377C22.6282 15.1094 22.9003 15.6092 22.9003 16.1267C22.9003 16.7266 21.12 21.3064 19.328 21.3064C19.0739 21.3064 18.8203 21.2427 18.6009 21.1105L16.9983 20.1708C16.388 20.6415 15.7237 21.03 15.0127 21.334V23.2192C15.0544 24.3887 14.1216 24.932 11.4497 24.932ZM6.09656 18.3178C7.78031 19.7865 8.55 19.9552 9.42703 20.2716V23.2189C10.0884 23.3306 10.778 23.3965 11.4783 23.3965C12.1791 23.3965 12.8906 23.3306 13.5966 23.1786L13.5519 20.2719C14.3052 20.0002 15.2009 19.7849 16.8824 18.3181L19.3953 19.7939C20.2756 18.7427 20.9783 17.508 21.4292 16.1452L18.9477 14.6889C19.0763 13.9746 19.1754 13.4771 19.1754 12.8272C19.1754 12.3054 19.1115 11.6849 18.9477 10.7753L21.4536 9.3052C20.9929 7.98285 20.2855 6.73341 19.3395 5.64933L16.8819 7.14608C15.1981 5.67744 14.4284 5.50875 13.5514 5.19234V2.24525C12.89 2.13355 12.2005 2.06765 11.5002 2.06765C10.7994 2.06765 10.0878 2.13355 9.38188 2.28547L9.42656 5.19225C8.67469 5.46606 7.77938 5.6376 6.09656 7.14818L3.58547 5.67096C2.69531 6.73408 1.98797 7.98352 1.5375 9.36257L4.03312 10.7759C3.90469 11.4893 3.80531 11.9896 3.80531 12.5948C3.80531 13.1166 3.86925 13.737 4.03308 14.6467L1.52714 16.1168C1.98787 17.4391 2.69527 18.6886 3.6412 19.7727L6.09656 18.3178ZM11.4919 17.2647C9.01031 17.2647 6.99188 15.2128 6.99188 12.6901C6.99188 10.1674 9.01219 8.11552 11.4919 8.11552C13.9716 8.11552 15.9919 10.1674 15.9919 12.6901C15.9919 15.2128 13.9716 17.2647 11.4919 17.2647ZM11.4919 9.64039C9.83719 9.64039 8.49187 11.009 8.49187 12.6901C8.49187 14.3713 9.83719 15.7399 11.4919 15.7399C13.1466 15.7399 14.4919 14.3713 14.4919 12.6901C14.4919 11.009 13.1466 9.64039 11.4919 9.64039Z" fill="#004A34"/>
</svg>
