<svg width="24" height="26" viewBox="0 0 24 26" fill="none" xmlns="http://www.w3.org/2000/svg">
<path d="M15.5297 9.57409C5.2367 9.27627 14.7619 9.27627 14.4694 9.57409L12 12.0854L9.52969 9.57409C9.23672 9.27627 8.76187 9.27627 8.46937 9.57409C8.17688 9.87192 8.17641 10.3546 8.46937 10.652L10.9406 13.1623L8.47031 15.6736C8.17734 15.9714 8.17734 16.4541 8.47031 16.7515C8.76309 17.0491 9.23766 17.0495 9.53063 16.7515L12 14.2392L14.4698 16.75C14.7626 17.0477 15.2372 17.048 15.5302 16.75C15.8231 16.4522 15.8231 15.9695 15.5302 15.6721L13.0594 13.1623L15.5292 10.6515C15.825 10.3556 15.825 9.86954 15.5297 9.57409ZM12 0.963348C5.37188 0.963348 0 6.42429 0 13.1623C0 19.9003 5.37188 25.3613 12 25.3613C18.6281 25.3613 24 19.9003 24 13.1623C24 6.42429 18.6281 0.963348 12 0.963348ZM12 23.8364C6.21094 23.8364 1.5 19.0473 1.5 13.1623C1.5 7.27726 6.21094 2.48822 12 2.48822C17.7891 2.48822 22.5 7.27726 22.5 13.1623C22.5 19.0473 17.7891 23.8364 12 23.8364Z" fill="#004A34"/>
</svg>
