<svg width="23" height="29" viewBox="0 0 23 29" fill="none" xmlns="http://www.w3.org/2000/svg">
<path d="M11.1429 7.90665C12.5625 7.90665 13.7143 6.73086 13.7143 5.28768C13.7143 4.17126 12.4082 2.12195 11.8457 1.29144C11.6893 1.10399 11.4161 0.985168 11.1429 0.985168C10.8696 0.985168 10.5964 1.10399 10.4411 1.33882C9.87857 2.16933 8.57143 4.21864 8.57143 5.33506C8.57143 6.77933 9.72321 7.90665 11.1429 7.90665ZM11.1429 3.45621C11.6384 4.30741 11.9936 5.06985 12 5.33506C12 5.8185 11.6116 6.20642 11.1429 6.20642C10.6741 6.20642 10.2857 5.81159 10.2857 5.33506C10.2911 5.0693 10.65 4.30687 11.1429 3.45621ZM18.8571 7.95566C20.2768 7.95566 21.4286 6.7777 21.4286 5.33452C21.4286 4.2181 20.1225 2.16878 19.56 1.33827C19.4036 1.10399 19.1304 0.986535 18.8571 0.986535C18.5839 0.986535 18.3113 1.10395 18.1543 1.33883C17.5929 2.16933 16.2857 4.21864 16.2857 5.33506C16.2857 6.77933 17.4375 7.95566 18.8571 7.95566ZM18.8571 3.45621C19.3527 4.30741 19.7079 5.06985 19.7143 5.33506C19.7143 5.8185 19.3259 6.20642 18.8571 6.20642C18.3884 6.20642 18 5.81159 18 5.33506C18.0054 5.0693 18.3643 4.30687 18.8571 3.45621ZM3.42857 7.95566C4.84821 7.95566 6 6.7777 6 5.33452C6 4.2181 4.69393 2.16878 4.13143 1.33827C3.97446 1.10399 3.70125 0.986535 3.42857 0.986535C3.15589 0.986535 2.88268 1.10399 2.72571 1.33882C2.16321 2.16933 0.857143 4.21864 0.857143 5.33506C0.857143 6.77933 2.00893 7.95566 3.42857 7.95566ZM3.42857 3.45621C3.92411 4.30687 4.27929 5.0693 4.28571 5.33506C4.28571 5.8185 3.89732 6.20642 3.42857 6.20642C2.95982 6.20642 2.57143 5.81159 2.57143 5.33506C2.57839 5.0693 2.93304 4.30687 3.42857 3.45621ZM17.1429 20.1546C16.4357 20.1546 15.8571 20.7428 15.8571 21.4616C15.8571 22.1805 16.4357 22.7687 17.1429 22.7687C17.85 22.7687 18.4286 22.1805 18.4286 21.4616C18.4286 20.7428 17.85 20.1546 17.1429 20.1546ZM19.8964 17.0232L19.0446 13.2709C18.6908 11.6894 17.3121 10.5681 15.7179 10.5681H6.42321C4.82893 10.5681 3.44357 11.6894 3.09643 13.2709L2.21679 17.1103C0.910714 17.7856 0 19.1471 0 20.7319V23.7342C0.00669643 24.8234 0.696429 25.7836 1.71429 26.1169V27.9957C1.71429 28.479 2.09598 28.8671 2.57143 28.8671C3.04688 28.8671 3.42857 28.4789 3.42857 27.9957V26.253H18.8571V27.9957C18.8571 28.479 19.2388 28.8671 19.7143 28.8671C20.1897 28.8671 20.5714 28.4789 20.5714 27.9957V26.1169C21.5893 25.7833 22.2793 24.8234 22.2857 23.7342V20.7319C22.2857 19.1253 21.3482 17.6713 19.8964 17.0232ZM4.7625 13.663C4.9433 12.8734 5.63304 12.3152 6.43661 12.3152H15.7045C16.5016 12.3152 17.198 12.8734 17.3786 13.663L18.0616 16.6719H4.07946L4.7625 13.663ZM20.5714 23.7381C20.5714 24.167 20.2299 24.5141 19.808 24.5141H2.47768C2.05607 24.5114 1.71429 24.1683 1.71429 23.7381V20.7357C1.71429 19.4559 2.73857 18.4141 3.99804 18.4141H18.2909C19.5498 18.4141 20.5746 19.4554 20.5746 20.7357V23.7381H20.5714ZM5.14286 20.1546C4.43571 20.1546 3.85714 20.7428 3.85714 21.4616C3.85714 22.1805 4.43571 22.7687 5.14286 22.7687C5.85 22.7687 6.42857 22.1805 6.42857 21.4616C6.42857 20.7428 5.85 20.1546 5.14286 20.1546Z" fill="#004A34"/>
</svg>
