<svg width="24" height="29" viewBox="0 0 24 29" fill="none" xmlns="http://www.w3.org/2000/svg">
<path d="M18 26.7131H5.14286C3.24911 26.7131 1.71429 25.1528 1.71429 23.2276V6.67193C1.71429 6.19268 1.33071 5.80057 0.857143 5.80057C0.383571 5.80057 0 6.19268 0 6.67193V23.2276C0 26.1151 2.3025 28.4558 5.14286 28.4558H18C18.4734 28.4558 18.8571 28.0656 18.8571 27.5844C18.8571 27.1032 18.4714 26.7131 18 26.7131ZM22.9982 6.74272L17.9352 1.59574C17.2875 0.939615 16.4196 0.572449 15.5089 0.572449H8.57143C6.68036 0.572449 5.14286 2.13272 5.14286 4.05786L5.14338 19.7422C5.14338 21.6674 6.6782 23.2276 8.57195 23.2276H20.572C22.4679 23.2276 24 21.6647 24 19.7422V9.2043C24 8.27848 23.6411 7.39624 22.9982 6.74272ZM17.1429 3.25458L21.3643 7.54328H18C17.5286 7.54328 17.1429 7.15117 17.1429 6.67193V3.25458ZM22.2857 19.7422C22.2857 20.7029 21.5164 21.4849 20.5714 21.4849H8.57143C7.62643 21.4849 6.85714 20.7029 6.85714 19.7422V4.05786C6.85714 3.0972 7.62643 2.31516 8.57143 2.31516H15.4286V6.67193C15.4286 8.11511 16.5804 9.28599 18 9.28599H22.2857V19.7422Z" fill="#004A34"/>
</svg>
