<svg width="25" height="25" viewBox="0 0 25 25" fill="none" xmlns="http://www.w3.org/2000/svg">
<path d="M21.2536 14.14L20.4018 10.8568C20.0482 9.47009 18.6607 8.48846 17.0589 8.49323H7.79107C6.19464 8.48846 4.80179 9.47009 4.45357 10.8568L3.57607 14.2162C2.26786 14.8071 1.35714 15.9984 1.35714 17.3851V20.0122C1.36384 20.9652 2.05357 21.8053 3.07143 22.097V23.7419C3.07143 24.166 3.45339 24.5044 3.92857 24.5044C4.40375 24.5044 4.78571 24.1648 4.78571 23.7419V22.217H20.2143V23.7419C20.2143 24.1648 20.596 24.5044 21.0714 24.5044C21.5469 24.5044 21.9286 24.1648 21.9286 23.7419V22.0979C22.9464 21.806 23.6364 20.9662 23.6429 20.0131V17.3861C23.6429 15.9794 22.7054 14.7071 21.2536 14.14ZM6.11964 11.1999C6.30179 10.5089 6.9875 10.0181 7.79107 10.0181H17.0589C17.8571 10.0181 18.5536 10.5089 18.7357 11.1999L19.4161 13.8303H5.43393L6.11964 11.1999ZM21.9286 20.0155C21.9286 20.3872 21.5857 20.6922 21.1679 20.6922H3.83482C3.41321 20.6922 3.07143 20.3872 3.07143 20.0155V17.3885C3.07143 16.2653 4.09625 15.3551 5.35357 15.3551H19.6464C20.9054 15.3551 21.9286 16.2653 21.9286 17.3851V20.0155ZM18.5 16.88C17.7929 16.88 17.2143 17.3946 17.2143 18.0237C17.2143 18.6527 17.7929 19.1673 18.5 19.1673C19.2071 19.1673 19.7857 18.6527 19.7857 18.0237C19.7857 17.3946 19.2071 16.88 18.5 16.88ZM6.5 16.88C5.79286 16.88 5.21429 17.3946 5.21429 18.0237C5.21429 18.6527 5.79286 19.1673 6.5 19.1673C7.20714 19.1673 7.78571 18.6527 7.78571 18.0237C7.78571 17.3946 7.20714 16.88 6.5 16.88ZM4.78571 7.73079C6.18286 7.73079 7.41179 7.12704 8.19446 6.20687H16.8088C17.5411 7.12561 18.8161 7.73079 20.2143 7.73079C22.5821 7.73079 24.5 6.02484 24.5 3.91862C24.5 1.81335 22.5821 0.106445 20.2143 0.106445C18.8161 0.106445 17.5866 0.710675 16.8045 1.63227H8.19821C7.41071 0.710675 6.18393 0.106445 4.78571 0.106445C2.41893 0.106445 0.5 1.81335 0.5 3.91862C0.5 6.02484 2.41893 7.73079 4.78571 7.73079ZM2.37232 3.15618C2.72696 2.27081 3.66982 1.63131 4.78571 1.63131C5.58714 1.63131 6.33125 1.96655 6.82786 2.551C7.1518 2.9325 7.65821 3.15666 8.19554 3.15666H16.8045C17.3418 3.15666 17.8486 2.93236 18.1721 2.551C18.6714 1.96679 19.4107 1.63131 20.2143 1.63131C21.3302 1.63131 22.273 2.27081 22.6277 3.15618H20.2143V4.68105H22.6277C22.2714 5.56738 21.3286 6.20592 20.2143 6.20592C19.4134 6.20592 18.6698 5.87097 18.1732 5.28671C17.8492 4.90559 17.3429 4.68153 16.8055 4.68153H8.19286C7.65554 4.68153 7.14929 4.90554 6.82518 5.28671C6.32857 5.82947 5.58393 6.20592 4.78571 6.20592C3.66982 6.20592 2.72696 5.56738 2.37232 4.68105H4.78571V3.15618H2.37232Z" fill="#004A34"/>
</svg>
