<svg width="24" height="17" viewBox="0 0 24 17" fill="none" xmlns="http://www.w3.org/2000/svg">
<path d="M11.6445 5.4815H12.3553C12.5974 5.4815 12.7866 5.21727 12.7608 4.91365L12.6045 3.04737C12.5899 2.87308 12.4733 2.74075 12.3341 2.74075H11.6653C11.5262 2.74075 11.4095 2.87308 11.3949 3.04737L11.2387 4.91365C11.2133 5.21727 11.4024 5.4815 11.6445 5.4815ZM11.3937 10.2778H12.6062C12.9291 10.2778 13.1808 9.92537 13.147 9.52068L12.9749 7.46512C12.9458 7.11653 12.7124 6.85187 12.4341 6.85187H11.5662C11.2878 6.85187 11.0545 7.11653 11.0253 7.46512L10.8532 9.52068C10.8191 9.92537 11.0707 10.2778 11.3937 10.2778ZM11.8378 1.37037H12.1624C12.3241 1.37037 12.4499 1.19394 12.4328 0.991809L12.3753 0.306622C12.3608 0.132327 12.2441 2.97981e-08 12.1049 2.97981e-08H11.8953C11.7562 2.97981e-08 11.6395 0.132327 11.6249 0.306622L11.5674 0.991809C11.5503 1.19394 11.6762 1.37037 11.8378 1.37037ZM12.8358 11.6482H11.1641C10.8857 11.6482 10.6524 11.9128 10.6232 12.2614L10.3362 15.6874C10.3024 16.0921 10.5541 16.4445 10.877 16.4445H13.1224C13.4453 16.4445 13.697 16.0921 13.6633 15.6874L13.3762 12.2614C13.3474 11.9128 13.1141 11.6482 12.8358 11.6482ZM6.55615 2.97981e-08C6.49038 -2.81763e-05 6.42607 0.0199686 6.37134 0.0574667C6.31662 0.0949648 6.27392 0.148284 6.24865 0.210695L0.0519628 15.4959C-0.130954 15.9469 0.191547 16.4445 0.667381 16.4445H1.83405C2.1303 16.4445 2.39114 16.2437 2.47405 15.9512L6.87615 0.43852C6.93824 0.21926 6.77823 2.97981e-08 6.55615 2.97981e-08ZM23.9479 15.4959L17.7516 0.210695C17.7263 0.148317 17.6836 0.0950296 17.6289 0.0575385C17.5742 0.0200475 17.5099 2.81875e-05 17.4441 2.97981e-08C17.222 2.97981e-08 17.062 0.21926 17.1241 0.43852L21.5262 15.9512C21.5666 16.0935 21.6508 16.2185 21.7662 16.3075C21.8816 16.3965 22.0219 16.4445 22.1662 16.4445H23.3329C23.8083 16.4445 24.1312 15.9469 23.9479 15.4959Z" fill="#004A34"/>
</svg>
