<svg width="24" height="19" viewBox="0 0 24 19" fill="none" xmlns="http://www.w3.org/2000/svg">
<path d="M15.4453 0.227753H1.05378C0.167843 0.227753 -0.321063 1.25227 0.237687 1.93751L5.25003 7.93787V14.714C5.25003 15.087 5.42872 15.4369 5.7305 15.6509L9.43831 18.3184C9.67972 18.4595 9.90472 18.5262 10.1203 18.5262C10.7016 18.5262 11.25 18.0592 11.25 17.3396V7.93787L16.261 1.93847C16.8188 1.25227 16.3313 0.227753 15.4453 0.227753ZM10.1063 6.95147L9.75003 7.37558V16.6487L6.75003 14.5143V7.37605L2.05128 1.75262H14.4497L10.1063 6.95147ZM20.25 2.51506H23.25C23.6624 2.51506 24 2.17182 24 1.79551C24 1.4192 23.6625 0.990187 23.25 0.990187H20.25C19.8377 0.990187 19.5 1.33343 19.5 1.70973C19.5 2.08604 19.8375 2.51506 20.25 2.51506ZM23.25 8.61453H15.75C15.3375 8.61453 15 8.95763 15 9.37697C15 9.79631 15.3377 10.1394 15.75 10.1394H23.25C23.6625 10.1394 24 9.79631 24 9.37697C24 8.95763 23.6625 8.61453 23.25 8.61453ZM23.25 16.2389H15.75C15.3377 16.2389 15 16.5821 15 17.0013C15 17.4205 15.3377 17.7637 15.75 17.7637H23.25C23.6624 17.7637 24 17.4205 24 17.0013C24 16.5821 23.6625 16.2389 23.25 16.2389Z" fill="#004A34"/>
</svg>
