<svg width="24" height="20" viewBox="0 0 24 20" fill="none" xmlns="http://www.w3.org/2000/svg">
<path d="M14.8042 5.2747L11.1625 10.1204L9.10667 8.27784C8.82917 8.02793 8.40833 8.01946 8.16667 8.33714C7.925 8.6167 7.95 9.04451 8.225 9.29442L10.8167 11.6156C10.9417 11.7257 11.0958 11.785 11.2583 11.785C11.2805 11.785 11.3086 11.7858 11.3307 11.7845C11.5143 11.766 11.6763 11.6686 11.7882 11.519L15.8624 6.09722C16.0863 5.7994 16.0303 5.3746 15.7374 5.14672C15.4458 4.9189 15.0292 4.97396 14.8042 5.2747ZM22 13.1405C21.6315 13.1405 21.3333 13.4436 21.3333 13.8182C21.3333 14.1928 21.6315 14.4959 22 14.4959C22.3672 14.4959 22.6667 14.7997 22.6667 15.1736V17.8845C22.6667 18.2584 22.3672 18.5622 22 18.5622H2C1.63292 18.5622 1.33333 18.2573 1.33333 17.8845V15.1736C1.33333 14.8009 1.63292 14.4959 2 14.4959C2.36833 14.4959 2.66667 14.1909 2.66667 13.8182C2.66667 13.4455 2.36833 13.1405 2 13.1405C0.897083 13.1405 0 14.0512 0 15.1736V17.8845C0 19.007 0.897083 19.9177 2 19.9177H22C23.1029 19.9177 24 19.0057 24 17.8845V15.1736C24 14.0512 23.1042 13.1405 22 13.1405ZM3.33333 17.2068H20.6667C21.0348 17.2068 21.3333 16.9033 21.3333 16.5291C21.3333 16.1548 21.0333 15.8514 20.6667 15.8514H20V2.97469C20 1.85179 19.1042 0.941528 18 0.941528H6C4.89583 0.941528 4 1.85179 4 2.97469V15.8514H3.33333C2.965 15.8514 2.66667 16.1563 2.66667 16.5291C2.66667 16.9018 2.965 17.2068 3.33333 17.2068ZM5.33333 2.97469C5.33333 2.60025 5.63333 2.29697 6 2.29697H18C18.3667 2.29697 18.6667 2.60025 18.6667 2.97469V15.8514H5.33333V2.97469Z" fill="currentColor"/>
</svg>
