<svg width="24" height="22" viewBox="0 0 24 22" fill="none" xmlns="http://www.w3.org/2000/svg">
<path d="M2.66667 14.6667H1.33333C0.597083 14.6667 0 15.2638 0 16V20C0 20.7362 0.597083 21.3333 1.33333 21.3333H2.66667C3.40292 21.3333 4 20.7362 4 20V16C4 15.2625 3.40292 14.6667 2.66667 14.6667ZM2.66667 20H1.33333V16H2.66667V20ZM22.6667 8H21.3333C20.5971 8 20 8.59708 20 9.33333V20C20 20.7362 20.5971 21.3333 21.3333 21.3333H22.6667C23.4029 21.3333 24 20.7362 24 20V9.33333C24 8.59583 23.4042 8 22.6667 8ZM22.6667 20H21.3333V9.33333H22.6667V20ZM16 13.3333H14.6667C13.9304 13.3333 13.3333 13.9304 13.3333 14.6667V20C13.3333 20.7362 13.9304 21.3333 14.6667 21.3333H16C16.7362 21.3333 17.3333 20.7362 17.3333 20V14.6667C17.3333 13.9292 16.7375 13.3333 16 13.3333ZM16 20H14.6667V14.6667H16V20ZM9.33333 8H8C7.2625 8 6.66667 8.59583 6.66667 9.33333V20C6.66667 20.7362 7.26375 21.3333 8 21.3333H9.33333C10.0696 21.3333 10.6667 20.7362 10.6667 20V9.33333C10.6667 8.59583 10.0708 8 9.33333 8ZM9.33333 20H8V9.33333H9.33333V20ZM21.0458 3.71667C21.2958 3.88 21.6458 4 22 4C23.1042 4 24 3.10458 24 2C24 0.895417 23.1042 0 22 0C20.8958 0 20 0.895417 20 2C20 2.25658 20.0657 2.4925 20.156 2.71667L16.2875 5.61667C16 5.45417 15.6875 5.33333 15.3333 5.33333C14.9792 5.33333 14.6646 5.45321 14.3775 5.61671L10.5125 2.71667C10.6 2.4925 10.6667 2.25667 10.6667 2C10.6667 0.895417 9.77083 0 8.66667 0C7.5625 0 6.66667 0.895417 6.66667 2C6.66667 2.30646 6.75642 2.58458 6.88054 2.84333L2.84346 6.88042C2.58458 6.75833 2.30667 6.66667 2 6.66667C0.895417 6.66667 0 7.5625 0 8.66667C0 9.77083 0.895417 10.6667 2 10.6667C3.10458 10.6667 4 9.77083 4 8.66667C4 8.36021 3.91025 8.08208 3.78612 7.82333L7.82321 3.78625C8.04583 3.91042 8.35833 4 8.66667 4C9.02125 4 9.33542 3.88013 9.6225 3.71662L13.4892 6.61662C13.4 6.84167 13.3333 7.075 13.3333 7.33333C13.3333 8.4375 14.2292 9.33333 15.3333 9.33333C16.4375 9.33333 17.3333 8.4375 17.3333 7.33333C17.3333 7.07675 17.2677 6.84083 17.1773 6.61667L21.0458 3.71667ZM22 1.33333C22.3667 1.33333 22.6667 1.6325 22.6667 2C22.6667 2.3675 22.3667 2.66667 22 2.66667C21.7995 2.66667 21.651 2.57179 21.5617 2.49225L21.4811 2.42038L21.424 2.31758C21.3625 2.20792 21.3333 2.10417 21.3333 2C21.3333 1.6325 21.6333 1.33333 22 1.33333ZM2 9.33333C1.6325 9.33333 1.33333 9.03333 1.33333 8.66667C1.33333 8.3 1.6325 8 2 8C2.13696 8 2.26579 8.04225 2.38283 8.12558L2.47529 8.19142L2.54113 8.28388C2.62458 8.4 2.66667 8.52917 2.66667 8.66667C2.66667 9.03333 2.3675 9.33333 2 9.33333ZM9.24167 2.3175L9.1875 2.42042L9.10417 2.4925C9.01667 2.57167 8.86667 2.66667 8.66667 2.66667C8.52917 2.66667 8.4 2.62458 8.28333 2.54125L8.19167 2.47542L8.125 2.38292C8.04167 2.26583 8 2.13708 8 2C8 1.6325 8.3 1.33333 8.66667 1.33333C9.03333 1.33333 9.33333 1.6325 9.33333 2C9.33333 2.10417 9.30417 2.20792 9.24167 2.3175ZM15.3333 8C14.9667 8 14.6667 7.7 14.6667 7.33333C14.6667 7.22933 14.6964 7.12542 14.7574 7.01571L14.8145 6.91292L14.8951 6.84104C14.9833 6.7625 15.1333 6.66667 15.3333 6.66667C15.5333 6.66667 15.6823 6.76154 15.7717 6.84108L15.8523 6.91296L15.9094 7.01575C15.9708 7.125 16 7.22917 16 7.33333C16 7.7 15.7 8 15.3333 8Z" fill="currentColor"/>
</svg>
