<svg width="24" height="18" viewBox="0 0 24 18" fill="none" xmlns="http://www.w3.org/2000/svg">
<path d="M19.5 6.91448L15.4237 1.73374C14.9663 1.15238 14.2762 0.815002 13.5487 0.815002H5.8275C4.84312 0.815002 3.96188 1.42038 3.59625 2.3494L1.8 7.00216C0.76875 7.27282 0 8.22205 0 9.35427V13.6239C0 14.2975 0.537375 14.8438 1.2 14.8438H2.46038C2.74763 16.5745 4.21875 17.8935 6 17.8935C7.78125 17.8935 9.25238 16.573 9.53963 14.8438H14.4596C14.7488 16.5745 16.2188 17.8935 18 17.8935C19.7812 17.8935 21.2524 16.573 21.5396 14.8438H22.8C23.4626 14.8438 24 14.2975 24 13.6239V11.4891C24 8.96162 21.9863 6.91448 19.5 6.91448ZM13.5487 2.0349C13.9164 2.0349 14.259 2.20229 14.4885 2.49426L17.9625 6.91448H9.6V2.0349H13.5487ZM4.71 2.80114C4.89375 2.33606 5.3325 2.0349 5.8275 2.0349H8.4V6.91448H3.12225L4.71 2.80114ZM6 16.6736C4.67663 16.6736 3.6 15.5792 3.6 14.2339C3.6 12.8885 4.67663 11.7941 6 11.7941C7.32338 11.7941 8.4 12.8885 8.4 14.2339C8.4 15.5792 7.32375 16.6736 6 16.6736ZM18 16.6736C16.6766 16.6736 15.6 15.5792 15.6 14.2339C15.6 12.8885 16.6766 11.7941 18 11.7941C19.3234 11.7941 20.4 12.8885 20.4 14.2339C20.4 15.5792 19.3238 16.6736 18 16.6736ZM22.8 13.6239H21.5396C21.2513 11.8932 19.7812 10.5742 18 10.5742C16.2188 10.5742 14.7476 11.8947 14.4604 13.6239H9.54C9.25125 11.8932 7.78125 10.5742 6 10.5742C4.21875 10.5742 2.74763 11.8947 2.46038 13.6239H1.2V9.35427C1.2 8.68066 1.73738 8.13437 2.4 8.13437H19.5C21.3225 8.13437 22.8 9.63637 22.8 11.4891V13.6239Z" fill="currentColor"/></svg>
