<svg width="24" height="23" viewBox="0 0 24 23" fill="none" xmlns="http://www.w3.org/2000/svg">
<path d="M23.25 20.517H3.75C2.50922 20.517 1.5 19.4925 1.5 18.2297V1.45616C1.5 1.03492 1.16438 0.693726 0.75 0.693726C0.335625 0.693726 0 1.03492 0 1.45616V18.2297C0 20.3312 1.68187 22.0419 3.75 22.0419H23.25C23.6646 22.0419 24 21.7009 24 21.2795C24 20.858 23.6625 20.517 23.25 20.517ZM5.77969 14.1936L10.5 9.39501L14.4698 13.4307C14.7628 13.7285 15.2377 13.7285 15.5302 13.4307L21 7.87014V12.1302C21 12.5496 21.3375 12.8927 21.75 12.8927C22.1625 12.8927 22.5 12.5496 22.5 12.1302V6.03077C22.5 5.61143 22.1625 5.26833 21.75 5.26833H15.7922C15.3375 5.26833 15 5.61143 15 6.03077C15 6.45011 15.3375 6.7932 15.75 6.7932H19.9397L15 11.8157L11.0297 7.7796C10.7367 7.48178 10.2619 7.48178 9.96937 7.7796L4.71938 13.1166C4.42641 13.4145 4.42641 13.8972 4.71938 14.1945C5.01094 14.4938 5.48906 14.4938 5.77969 14.1936Z" fill="currentColor"/>
</svg>
